<?xml version="1.0" encoding="utf-8"?>
<!-- Generator: Adobe Illustrator 18.1.1, SVG Export Plug-In . SVG Version: 6.00 Build 0)  -->
<svg version="1.1" id="Logo_Inovex_Kopie_1_" xmlns="http://www.w3.org/2000/svg" xmlns:xlink="http://www.w3.org/1999/xlink"
	 x="0px" y="0px" viewBox="0 0 120 83" width="120" height="83" enable-background="new 0 0 120 83" xml:space="preserve">
<g id="Bildmarke">
	<g>
		<path fill="#003C7E" d="M60,0L36.6,23.6L64,17L60,0z M61.1,50.3l23.4-23.6l-27.4,6.6L61.1,50.3z M85.5,24.6L62.1,1l6.6,27.6
			L85.5,24.6z M35.6,25.7L59,49.3l-6.6-27.6L35.6,25.7z"/>
	</g>
</g>
<g id="Schriftzug">
	<g>
		<path d="M2.4,53.2c-0.7,0-1.3,0.2-1.8,0.7C0.2,54.4,0,55,0,55.6c0,0.7,0.2,1.3,0.7,1.8c0.5,0.5,1,0.7,1.7,0.7
			c0.7,0,1.2-0.2,1.7-0.7c0.5-0.5,0.7-1.1,0.7-1.7c0-0.7-0.2-1.3-0.7-1.8C3.6,53.4,3.1,53.2,2.4,53.2z M0.4,82.6h4.1V62H0.4V82.6z
			 M20.5,61.6c-2.6,0-4.7,1.1-6.3,3.2V62h-4.1v20.5h4.1V67.8c1.7-2,3.4-3,5.2-3c1.3,0,2.3,0.5,2.9,1.4c0.7,0.9,1,2.1,1,3.7v12.7h4.1
			V70c0-2.6-0.6-4.6-1.9-6.1C24.4,62.4,22.7,61.6,20.5,61.6z M42.8,61.6c-3.1,0-5.7,1-7.8,3.1c-2.1,2-3.1,4.5-3.1,7.5
			c0,3.2,1,5.8,3.1,7.8c2.1,2,4.7,3,7.8,3c3.2,0,5.8-1,7.9-2.9c2.1-2,3.1-4.6,3.1-7.9c0-3.1-1.1-5.6-3.2-7.6
			C48.6,62.6,46,61.6,42.8,61.6z M47.9,77.3c-1.2,1.3-3,2-5.2,2c-2,0-3.6-0.6-4.8-1.9C36.6,76,36,74.3,36,72.1
			c0-1.9,0.6-3.5,1.9-4.8c1.2-1.3,2.8-1.9,4.8-1.9c2,0,3.7,0.6,5,1.9c1.4,1.3,2,2.9,2,4.9C49.7,74.3,49.1,76,47.9,77.3z M65.4,74.6
			L59.9,62h-4.4l9.3,21h1.4L75,62h-4.3L65.4,74.6z M93.3,64.6c-1.5-2-3.7-3-6.5-3c-2.8,0-5.1,1-6.9,3c-1.7,2-2.6,4.5-2.6,7.5
			c0,3.1,0.9,5.7,2.7,7.8c1.8,2.1,4.2,3.1,7.2,3.1c1.8,0,3.2-0.2,4.5-0.7c1.2-0.5,2.4-1.1,3.4-1.8v-4c-2.5,1.8-4.9,2.8-7.1,2.8
			c-3.8,0-6-2.1-6.8-6.4h14.3C95.5,69.3,94.8,66.6,93.3,64.6z M81.3,70.2c0.5-3.3,2.4-4.9,5.5-4.9c1.5,0,2.6,0.5,3.5,1.4
			c0.8,1,1.3,2.1,1.3,3.5H81.3z M111,72.1l8.4-10.1h-5.2l-5.8,7l-6-7h-5.2l8.6,10.1l-8.6,10.4h5.2l6-7.4l6.4,7.4h5.1L111,72.1z"/>
	</g>
</g>
</svg>
